<?xml version="1.0" encoding="UTF-8" standalone="no"?>
<svg
   version="1.0"
   viewBox="0 0 184 196.00002"
   preserveAspectRatio="xMidYMid"
   id="svg18"
   xmlns="http://www.w3.org/2000/svg"
   xmlns:svg="http://www.w3.org/2000/svg">
  <defs
     id="defs18" />
  <metadata
     id="metadata1"> Created by potrace 1.10, written by Peter Selinger 2001-2011 </metadata>
  <path
     d="M 59.9,5.3 C 59,7.4 58.6,12 58.7,19 59.1,41.7 70,71.3 82.1,82.5 c 1.8,1.6 2.9,2.5 2.5,1.8 -1,-1.9 1.9,-7.9 4.8,-9.8 L 92,72.8 89.9,69.9 C 88.1,67.3 88.1,67 89.5,67 c 1.4,0 1.6,-0.6 1,-3.8 -0.9,-4.7 -1,-4.8 -4,-3.4 -3.2,1.5 -3.2,0.2 0,-3.6 l 2.5,-3 -2,-5.8 C 83.2,35.7 80.2,30.3 76.8,29.1 75.1,28.5 72.9,28 71.9,28 68.8,28 69.8,26.2 73.5,25 L 77,23.8 69.8,13.4 C 65.8,7.6 62.3,2.7 61.9,2.5 c -0.4,-0.3 -1.3,1 -2,2.8 z m 7.6,9.4 4.5,6.7 -2.7,2.8 c -2.6,2.7 -2.6,2.9 -1,4.5 1,1 3.4,2.2 5.5,2.8 3.1,0.8 4.1,1.9 6.4,6.5 1.5,3 3.4,7.6 4.2,10.2 1.3,4.5 1.3,5 -0.6,7.3 -2.7,3.5 -2.1,6.9 1.5,7.3 2.8,0.3 3.5,2 1.6,3.9 -0.7,0.7 -0.8,1.7 -0.1,2.9 0.8,1.5 0.4,2.6 -1.9,5.3 -2.4,3 -3,3.2 -4.4,2.1 C 74.9,72.4 65.1,47.4 62.8,31.8 61.6,24.3 61.5,8 62.5,8 c 0.3,0 2.5,3 5,6.7 z"
     id="path1"
     style="fill:#000000;stroke:none;stroke-width:18.9;stroke-dasharray:none" />
  <path
     d="m 128,27.7 c -9,1.5 -15.4,4.7 -22.1,11 -8.3,7.9 -11.8,14.5 -12.9,24.5 -1,8.5 -0.7,9.3 2.6,9.4 1.4,0.1 3.4,1 4.5,2 1,0.9 2,1.5 2.2,1.3 0.1,-0.2 1.7,-2.3 3.6,-4.7 2.9,-3.9 3.1,-4.5 1.8,-6 -1.5,-1.9 -2.9,-5.2 -2.1,-5.2 0.3,0 1.9,0.7 3.5,1.6 3,1.5 3.1,1.4 7.1,-2.1 4.2,-3.8 13,-8.5 16.1,-8.5 2.2,0 2.1,-0.8 -0.4,-4.9 -1.1,-1.8 -1.7,-3.6 -1.4,-3.9 0.3,-0.3 2.4,0.3 4.8,1.4 l 4.2,2.1 5,-3.9 c 2.8,-2.1 7.7,-4.7 11,-5.7 l 5.9,-1.8 -3.3,-1.7 c -7.7,-4 -21.7,-6.3 -30.1,-4.9 z m 20.2,4.6 4,1.2 -6.6,4.2 -6.5,4.2 -4.1,-1.6 c -3.8,-1.5 -4.2,-1.5 -5.8,0 -1.4,1.4 -1.4,2.2 -0.5,4.7 1.1,3 1.1,3.1 -4.6,6 -3.2,1.6 -7.2,4.1 -8.9,5.5 -2.5,2.1 -3.8,2.5 -6.5,2 -4.6,-0.9 -6.5,1.3 -4.7,5.5 1,2.5 1,3.4 -0.4,5.4 -1.4,2.2 -1.8,2.3 -4.6,1.3 -2.8,-1.1 -3,-1.5 -3,-6.2 0,-8.8 2.5,-14.2 10.4,-22.1 5.5,-5.5 8.3,-7.5 12.4,-8.8 10.9,-3.6 19.9,-4 29.4,-1.3 z"
     id="path2"
     style="fill:#000000;stroke:none;stroke-width:30.7;stroke-dasharray:none" />
  <path
     d="m 130.5,55.4 c -5.5,1.4 -13.7,5.4 -17.4,8.6 -1.8,1.6 -2.1,2.3 -1.2,3.4 0.9,1.1 0.6,1.5 -1.3,2 -3,0.7 -7.6,7.9 -6.9,10.7 0.3,1 0.7,1.9 1,1.9 0.3,0 4.6,-2 9.6,-4.5 12.9,-6.4 23.4,-7.6 32.9,-4 1.4,0.6 1.9,-0.1 2.4,-3.4 0.8,-4.8 2.2,-5.3 3.1,-1.1 0.3,1.6 0.7,3 0.9,3 0.2,0 1.9,-1.1 3.9,-2.4 4.4,-3 13.4,-5 18.9,-4.3 l 4.1,0.6 -2.5,-2 c -4.6,-3.6 -12.2,-7 -18.9,-8.5 -8,-1.7 -21.8,-1.7 -28.6,0 z m 27.8,3.2 c 9,2 11,3 8.2,3.9 -1.1,0.3 -4,1.5 -6.4,2.6 -3.9,1.8 -4.5,1.8 -6,0.4 -2.7,-2.3 -4.8,-1.8 -6.3,1.5 -1.2,2.8 -1.6,2.9 -4.8,2.3 -9.4,-2 -21.3,0.4 -31.7,6.4 -6.1,3.5 -5.2,0 1,-4 1.5,-1 2.7,-2.6 2.7,-3.7 0,-1.8 4.9,-5.7 9.3,-7.3 0.9,-0.4 1.9,-0.7 2.2,-0.8 8.1,-3.1 21.3,-3.6 31.8,-1.3 z"
     id="path3"
     style="fill:#000000;stroke:none;stroke-width:18.9;stroke-dasharray:none" />
  <path
     d="M 27,58.5 C 19.4,60.2 9.4,64.9 6.3,68.2 l -2.2,2.3 5.2,-0.4 c 6.5,-0.4 14.8,1.4 18.1,4 L 30,76.2 30.6,73 c 0.9,-4 2.5,-3.4 3.9,1.6 1.2,4.4 0.6,4.2 13,2.9 8.9,-0.9 19.2,1.2 29.4,6 L 84.3,87 79.9,82.5 C 77.5,80 73.8,75.2 71.8,71.7 66.3,62.4 66,62.1 59.5,59.8 51.8,57 36.3,56.4 27,58.5 Z m 25.2,2.6 c 10.1,2.2 13,4.1 16.7,11 2.8,5.1 3,6.1 1.5,5.5 -8,-3.2 -21.5,-4.2 -30.2,-2.2 -1.8,0.4 -2.5,-0.1 -3.6,-2.7 -0.7,-1.8 -2.1,-3.9 -3.1,-4.7 -1.5,-1.3 -1.9,-1.2 -3.6,0.8 -1.7,2.1 -2,2.2 -4.6,0.8 -1.6,-0.8 -4.6,-1.7 -6.7,-2.1 -5.1,-1 -3.2,-2.7 5.4,-4.9 11.5,-2.8 19.8,-3.3 28.2,-1.5 z"
     id="path4"
     style="fill:#000000;stroke:none;stroke-width:18.9;stroke-dasharray:none" />
  <path
     d="m 128,74.1 c -2.5,0.4 -8.6,2.9 -13.6,5.4 -7.2,3.6 -9.3,5.2 -9.7,7.1 -0.3,1.8 0,2.4 1.3,2.4 1,0 2.3,0.7 3,1.5 0.9,1 3.2,1.5 7.6,1.5 3.4,0 6.6,0.5 6.9,1.1 0.4,0.5 1.6,-0.9 2.8,-3.3 l 2.1,-4.3 0.9,4.3 c 0.5,2.6 1.4,4.2 2.2,4.2 2.9,0 12.4,4.9 16.3,8.5 l 4.1,3.7 2.1,-3.4 c 1.1,-1.8 2,-3.6 2,-4.1 0,-0.4 0.5,-0.7 1,-0.7 0.6,0 1,1.2 1,2.7 0,5.9 1.1,7.3 7.4,10.2 3.3,1.6 7.8,4.5 10,6.5 2.1,2 3.9,3.6 4.1,3.6 0.4,0 -1.3,-10.8 -2.5,-15 -1.6,-6.1 -4.1,-10.7 -9,-16.8 C 162.4,82 155.1,77.5 145.6,75 137.1,72.9 135,72.7 128,74.1 Z m 19,4.5 c 7.5,2.1 15.1,7.5 20.5,14.6 4.1,5.5 7.5,13.6 7.5,18 0,1.7 -0.2,1.7 -2.4,0.3 -1.4,-0.9 -4.4,-2.6 -6.8,-3.8 -3.3,-1.7 -4.4,-2.9 -4.9,-5.4 -1.3,-6.4 -4.5,-8 -7.6,-3.7 l -1.9,2.5 -5.1,-3.4 c -2.9,-1.9 -7.2,-4.3 -9.7,-5.2 -3,-1.2 -4.6,-2.4 -4.6,-3.5 0,-0.9 -0.9,-2.5 -2,-3.5 -2,-1.8 -2.1,-1.8 -4.8,0.8 -2.3,2.2 -3.7,2.7 -7.9,2.7 -11,0 -11,-2.4 0,-7.6 11.6,-5.4 17.6,-6 29.7,-2.8 z"
     id="path5"
     style="fill:#000000;stroke:none;stroke-width:18.9;stroke-dasharray:none" />
  <path
     d="m 90.9,75.5 c -7.9,4.3 -5,19.5 3.6,19.5 8.8,0 11.4,-15.4 3.4,-19.5 -3.4,-1.8 -3.7,-1.8 -7,0 z m 7.3,4.2 c 2.3,2 2.4,8 0.1,10.5 -3.7,4.1 -9.3,0.9 -9.3,-5.3 0,-6.2 5,-9 9.2,-5.2 z"
     id="path6"
     style="fill:#000000;stroke:none;stroke-width:18.9;stroke-dasharray:none" />
  <path
     d="m 44.3,80.5 c -11.4,3.1 -19.3,8.9 -25.8,19 -4.6,7.2 -6.6,13.7 -7.2,24 l -0.5,9 3.7,-4.2 c 2,-2.4 6.3,-5.9 9.6,-7.9 5.9,-3.7 5.9,-3.7 5.9,-8.5 0,-2.7 0.5,-4.9 1,-4.9 0.6,0 1,0.4 1,0.9 0,0.4 0.9,2 2.1,3.5 l 2,2.6 4.8,-4.8 c 2.6,-2.6 7.3,-6.1 10.4,-7.7 C 56.6,98.7 57,98.2 57,95 l 0.1,-3.5 2.7,3.1 c 2.6,2.9 2.9,2.9 6.2,1.8 1.9,-0.7 5.6,-1.3 8.2,-1.3 C 78.8,95 85.9,92.3 86,90.7 86,89.3 69.7,82.1 62.9,80.5 55.1,78.7 51.1,78.7 44.3,80.5 Z m 21.8,4.1 c 7.4,2.2 13.9,5.2 13.9,6.4 0,0.5 -2.1,1 -4.8,1 -2.6,0 -6.2,0.4 -8.1,1 -2.9,0.8 -3.8,0.6 -6.4,-1.6 -2.8,-2.3 -3.1,-2.4 -4.8,-0.8 -1.1,0.9 -1.9,2.8 -1.9,4.1 0,1.3 -0.8,2.6 -1.7,3 -2.5,0.9 -9.2,5.6 -12.5,8.7 -1.5,1.4 -3,2.6 -3.3,2.6 -0.3,0 -1.7,-1.2 -3,-2.7 -2.3,-2.7 -2.3,-2.8 -4.4,-0.9 -1.5,1.3 -2.1,3.2 -2.2,6 0,3.9 -0.3,4.3 -6.5,8.3 -7.2,4.6 -7.2,4.6 -5.4,-4.8 3.6,-18.9 22.8,-34 40.9,-32.3 2.9,0.3 7.5,1.2 10.2,2 z"
     id="path7"
     style="fill:#000000;stroke:none;stroke-width:18.9;stroke-dasharray:none" />
  <path
     d="m 102.8,92.1 c -0.7,1.1 -3,2.9 -5,4 -3.3,1.7 -3.8,2.4 -3.8,5.5 0,2.6 0.8,4.3 2.9,6.5 3.8,3.8 6.5,3.7 10.7,-0.5 2.8,-2.8 3.4,-4.1 3.4,-7.8 -0.1,-4.6 -1.2,-6.8 -4.7,-8.7 -1.9,-1 -2.4,-0.8 -3.5,1 z m 4,3.1 c 0.7,0.7 1.2,2.9 1.2,4.9 0,2.9 -0.6,4.3 -2.6,5.8 -3.2,2.5 -4.2,2.6 -6.6,0.4 -2.7,-2.4 -2.3,-5.8 1,-7.8 1.5,-1 3.1,-2.4 3.5,-3.2 1,-1.6 1.9,-1.7 3.5,-0.1 z"
     id="path8"
     style="fill:#000000;stroke:none;stroke-width:18.9;stroke-dasharray:none" />
  <path
     d="m 81.1,96.6 c -3.3,4.1 -2.9,10.8 0.8,14.5 3.5,3.5 8.8,4 11.5,1 1.6,-1.8 1.6,-2.1 0.1,-5.1 -0.9,-1.7 -1.5,-4.7 -1.3,-6.7 0.2,-2.8 -0.2,-3.7 -2.2,-4.9 -3.8,-2 -6.6,-1.7 -8.9,1.2 z m 6.3,1 c 0.9,0.3 1.6,1.7 1.6,3 0,1.4 0.6,4 1.4,5.9 1.7,3.9 1.3,4.5 -2.5,4.5 -3.5,0 -5.9,-3.2 -5.9,-8 0,-4.9 1.9,-6.8 5.4,-5.4 z"
     id="path9"
     style="fill:#000000;stroke:none;stroke-width:18.9;stroke-dasharray:none" />
  <path
     d="m 113,99.5 c 0,4.3 -2.2,8.8 -5.2,10.9 l -2.2,1.6 h 2.3 c 2.2,0 2.3,0.1 0.9,1.7 -1.4,1.6 -1.3,2 1.3,4.1 l 2.9,2.4 1.8,-3.1 c 0.9,-1.7 2.1,-3.1 2.6,-3.1 0.8,0 0.1,5.5 -1,8.5 -0.4,0.8 2.7,2.9 9.1,6 l 9.6,4.7 5.5,-3.2 c 3.1,-1.7 5.8,-2.9 6.1,-2.6 0.3,0.2 -0.7,2 -2.2,4 l -2.6,3.5 3.8,0.7 c 2,0.4 7.4,1.2 11.8,1.9 9.1,1.3 10,0.8 8.5,-4.4 -3.9,-13.8 -24.4,-30.8 -42.7,-35.6 -9.1,-2.4 -10.3,-2.1 -10.3,2 z m 15.3,3 c 15.8,6.2 34.7,22.9 34.7,30.5 0,2.1 -0.3,2.2 -4.7,1.6 -11.6,-1.7 -11.2,-1.5 -10,-4.7 0.9,-2.4 0.8,-3.2 -0.6,-4.6 -1.3,-1.3 -2.1,-1.5 -3.5,-0.7 -8,4.9 -8,4.9 -11.9,3.5 -2.1,-0.7 -5.7,-2.2 -8,-3.3 -3.9,-1.8 -4.2,-2.2 -4.5,-6.5 -0.4,-6 -3,-7.9 -5.9,-4.4 -1,1.3 -2,1.9 -2,1.5 -0.4,-3.2 -0.2,-4.4 1.9,-8.3 1.2,-2.4 2.2,-5.2 2.2,-6.2 0,-1.5 0.6,-1.7 3.3,-1.3 1.7,0.4 5.8,1.7 9,2.9 z"
     id="path10"
     style="fill:#000000;stroke:none;stroke-width:18.9;stroke-dasharray:none" />
  <path
     d="m 66.7,98 c -1.6,0.5 -3.5,1.7 -4.3,2.7 -1.3,1.7 -1.3,1.7 -1.4,0 0,-1.6 -0.9,-1.3 -7,1.9 -9.2,4.8 -14.1,9.7 -18.6,18.6 -3.3,6.3 -3.8,8.5 -4.2,15.8 -0.7,14.2 3.2,25.1 12.9,36.2 l 3.8,4.3 0.1,-6.6 c 0,-3.6 0.7,-8.8 1.5,-11.5 2,-6.6 1.9,-6.8 -1.5,-10.7 -3.1,-3.6 -3,-5.3 0.2,-3.6 2.5,1.4 2.9,1 3.9,-4.8 0.5,-2.6 2.4,-8 4.3,-11.9 l 3.4,-7.2 -2.7,-2.7 -2.6,-2.7 4.2,0.5 c 4.1,0.5 4.3,0.4 6.7,-3.7 2.1,-3.6 4.8,-6.3 10.7,-10.6 0.3,-0.3 0.9,-1.5 1.3,-2.8 0.7,-2.1 0.5,-2.2 -3.6,-2.1 -2.4,0 -5.6,0.5 -7.1,0.9 z m 2.4,6.2 c -2.4,2.4 -5,5.3 -5.9,6.5 -1,1.6 -2.4,2.3 -4.7,2.3 -4.8,0 -6.3,2.3 -4.1,6.4 1.7,3.2 1.7,3.5 -0.2,7.2 -1.1,2.2 -2.8,6.5 -3.8,9.6 -1.2,3.9 -2.3,5.8 -3.4,5.8 -1.9,0 -4,1.9 -4,3.6 0,0.7 1.2,2.6 2.6,4.4 l 2.6,3.1 -1.6,5.8 c -0.9,3.1 -1.6,6.8 -1.6,8 0,1.9 -0.3,2.1 -1.5,1.1 -2.4,-2 -6.2,-9.3 -8,-15.3 -2.6,-9 -1.8,-22.5 1.8,-29.9 4.6,-9.5 16.1,-18.8 23.1,-18.8 1.4,0 2.8,-0.4 3.1,-1 0.6,-1 5.7,-2.7 8.5,-2.9 0.8,-0.1 -0.5,1.8 -2.9,4.1 z"
     id="path11"
     style="fill:#000000;stroke:none;stroke-width:18.9;stroke-dasharray:none" />
  <path
     d="M 70.5,112.7 C 59,124.2 54,134.4 53.2,148.1 c -0.8,14.6 4.5,31.7 12.9,41.2 l 3.4,3.9 v -10.4 c 0,-8.2 0.4,-10.9 1.8,-13.1 2.3,-3.5 2.2,-3.7 -1.4,-3.7 -3.8,0 -3.4,-2 0.7,-3.3 5.1,-1.7 5.4,-2.3 3.8,-7.5 -2.9,-9.8 -1.1,-28.9 3.7,-38.3 1.8,-3.5 1.8,-4.4 0.7,-7 -0.7,-1.6 -1.6,-2.9 -1.9,-2.9 -0.4,0 -3.2,2.6 -6.4,5.7 z m 6.5,-0.2 c 0,0.3 -0.9,2.4 -2,4.5 -3.5,6.9 -5.2,16.6 -4.7,27 0.3,5.2 0.8,10.7 1.2,12.2 0.6,2.2 0.3,2.9 -1.1,3.4 -5,1.8 -6.9,5.9 -3.8,8.5 1.1,0.9 1.3,2 0.8,3.8 -0.4,1.4 -1,4.8 -1.3,7.6 l -0.7,5 -2.7,-5.3 c -8.2,-15.6 -8.8,-36.3 -1.6,-50.4 3,-6 15.9,-19.1 15.9,-16.3 z"
     id="path12"
     style="fill:#000000;stroke:none;stroke-width:18.9;stroke-dasharray:none" />
  <path
     d="m 94.2,113.7 c -1.9,2 -3,2.4 -6,2.1 -2,-0.3 -4.4,-0.8 -5.3,-1.2 -4.2,-1.8 -5.1,23.1 -1.5,36.9 3.4,12.4 13.2,27.5 18,27.5 2,0 2,0.1 5,-12.8 l 2.4,-10.4 -5.1,0.6 c -5.2,0.6 -5.2,0.6 -2.7,-1.1 7.9,-5.7 8,-6 8,-13.6 0,-4 -0.3,-8.9 -0.6,-10.9 -0.6,-3.4 -1,-3.8 -4.3,-4.4 -6,-1.1 -6.7,-2 -2.1,-2.8 3.5,-0.5 4.1,-1 3.5,-2.4 -0.4,-0.9 -1,-2.5 -1.3,-3.5 -0.3,-1.2 -1.1,-1.7 -2.3,-1.4 -1.4,0.4 -1.7,-0.1 -1.6,-2.1 0.3,-3.3 -1.3,-3.5 -4.1,-0.5 z m 2.9,4.9 c 1.8,1.6 1.7,1.7 -0.7,3.6 -2.2,1.8 -2.3,2.2 -1.2,4 0.8,1.2 2.9,2.6 4.8,3.2 l 3.5,1.1 0.3,8.5 0.3,8.5 -4.8,4.2 c -4.1,3.5 -4.6,4.4 -3.7,6 0.6,1 2.5,1.9 4.3,2.1 2.5,0.3 3.1,0.7 2.7,2 -0.3,0.9 -1,3.9 -1.7,6.7 -0.6,2.7 -1.6,5.4 -2,5.9 -1.4,1.5 -6.1,-3.7 -9.7,-10.6 -5.1,-10.1 -6.6,-17.6 -6.7,-32.3 v -12.9 l 4.5,0.2 c 2.5,0.1 5.2,-0.2 6,-0.8 2,-1.3 2,-1.3 4.1,0.6 z"
     id="path13"
     style="fill:#000000;stroke:none;stroke-width:18.9;stroke-dasharray:none" />
  <path
     style="fill:#000000;fill-opacity:1;stroke-width:61.8685;stroke-dasharray:none"
     d="m 11.01154,130.47427 c 0.07245,-0.94078 0.237672,-3.53757 0.367155,-5.77063 0.281905,-4.86177 0.551046,-7.22946 1.173591,-10.3243 2.101507,-10.44716 8.880449,-20.942593 17.569351,-27.201575 4.270934,-3.076538 11.140348,-5.981565 17.207745,-7.277032 5.189509,-1.108035 11.88554,-0.534735 18.430238,1.577947 6.94705,2.242568 18.22925,7.292768 19.635012,8.789138 0.498128,0.530227 0.504345,0.5799 0.12507,0.999 -0.889612,0.983002 -4.783635,2.599297 -7.902885,3.280245 -0.632212,0.138015 -2.50932,0.34812 -4.171342,0.466905 -3.266045,0.233422 -5.915243,0.700762 -7.959731,1.404172 -0.71088,0.244575 -1.719877,0.446715 -2.242217,0.44919 -0.910522,0.0045 -1.056079,-0.106425 -3.527638,-2.683815 L 57.137962,91.4952 56.98981,92.23596 c -0.08148,0.407415 -0.148151,1.566285 -0.148151,2.57526 0,3.068265 -0.548016,3.784057 -4.592583,5.99862 -5.002282,2.73894 -8.290623,5.22475 -12.923928,9.76979 l -3.248095,3.18623 -1.487747,-1.96459 c -0.818263,-1.08053 -1.818913,-2.61295 -2.223669,-3.40537 -0.832332,-1.62953 -1.414838,-1.86568 -1.933378,-0.78378 -0.189081,0.3945 -0.389928,2.07345 -0.502702,4.20225 -0.130736,2.46787 -0.299296,3.76085 -0.554661,4.25466 -0.473387,0.91544 -1.643164,1.84398 -5.402418,4.28835 -4.960159,3.22523 -7.037216,4.98847 -10.550977,8.95686 l -2.541692,2.87056 z m 5.11293,-8.06056 c 1.309021,-0.59764 6.927957,-4.20806 8.548532,-5.49282 1.719562,-1.36324 2.138782,-2.30657 2.343935,-5.27431 0.233722,-3.38102 0.620449,-4.43871 2.203129,-6.0255 0.735082,-0.73699 1.538524,-1.33404 1.795201,-1.33404 0.289087,0 1.210358,0.81087 2.438548,2.14632 1.085662,1.18048 2.24615,2.29201 2.578862,2.47007 0.580003,0.31041 0.672595,0.26738 2.247023,-1.04429 7.011732,-5.84149 9.099788,-7.37591 12.660937,-9.303943 2.39692,-1.29771 2.990073,-2.02014 3.1815,-3.874897 0.231206,-2.24016 2.222817,-5.009685 3.60255,-5.009685 0.257534,0 1.077736,0.473985 1.822668,1.053293 2.325963,1.808827 3.644817,2.62386 4.491966,2.775967 0.528285,0.09485 1.736864,-0.06495 3.416382,-0.45174 1.642501,-0.378263 3.903045,-0.681322 6.142727,-0.823515 5.403735,-0.343073 6.44391,-0.54735 6.44391,-1.265505 0,-1.629068 -10.338726,-5.864205 -18.479236,-7.569802 C 57.044443,82.442565 51.425011,82.207882 47.797558,82.814437 33.61546,85.185855 20.55541,96.55941 16.027846,110.48161 c -0.811183,2.49438 -1.851912,7.58388 -2.041234,9.98229 -0.190087,2.40811 0.251626,2.81097 2.137858,1.94981 z"
     id="path18" />
  <path
     style="fill:#000000;fill-opacity:1;stroke:#000000;stroke-width:0.328107;stroke-dasharray:none;stroke-opacity:1"
     d="m 14.356023,122.43892 c -0.446609,-0.44661 -0.419344,-1.38552 0.131416,-4.52542 0.86062,-4.90643 1.502088,-7.26004 2.835976,-10.40547 3.130745,-7.3826 8.77731,-14.042595 15.815405,-18.65391 4.200588,-2.752208 8.804787,-4.698533 13.32482,-5.632793 2.374341,-0.490762 4.07131,-0.666975 6.402031,-0.664777 2.119761,0.0023 3.355059,0.09177 5.209116,0.378555 3.855309,0.596332 7.093446,1.36704 10.493043,2.49744 5.937622,1.974322 10.721862,4.240627 11.29604,5.350972 0.127192,0.245963 0.125167,0.26244 -0.04973,0.40407 -0.50286,0.40719 -2.196368,0.69378 -4.513545,0.76383 -3.477014,0.105105 -5.79315,0.38526 -8.161664,0.987233 -3.023353,0.768397 -3.666981,0.61863 -6.236372,-1.45122 -2.773166,-2.23401 -3.200614,-2.382165 -4.35948,-1.510973 -1.533832,1.153073 -2.401864,2.702318 -2.568706,4.584555 -0.07579,0.855 -0.178812,1.245803 -0.488395,1.852635 -0.338027,0.662588 -0.702104,0.966773 -1.772834,1.481205 -3.083352,1.4814 -8.428788,5.263848 -11.889132,8.412808 -1.227641,1.11717 -2.515856,2.18002 -3.019629,2.49138 l -0.309035,0.19098 -0.304311,-0.20203 c -0.703416,-0.46701 -2.004637,-1.76499 -3.447214,-3.43864 -1.468067,-1.70323 -1.894362,-1.69683 -3.670443,0.055 -1.017087,1.00324 -1.292505,1.42484 -1.673323,2.56151 -0.332703,0.99305 -0.474383,2.00137 -0.567896,4.04165 -0.08737,1.90621 -0.207194,2.44002 -0.716844,3.19352 -0.580623,0.85843 -1.487919,1.61977 -3.69508,3.10069 -3.182312,2.13521 -5.869762,3.77219 -6.787486,4.13439 -0.748753,0.2955 -0.983458,0.29601 -1.276718,0.003 z"
     id="path33" />
  <path
     style="fill:#000000;fill-opacity:1;stroke:#000000;stroke-width:0.328107;stroke-dasharray:none;stroke-opacity:1"
     d="m 43.828171,168.16747 c -2.067594,-1.52208 -5.144124,-6.86468 -7.35228,-12.76773 -0.917685,-2.45325 -1.398613,-4.23759 -1.812887,-6.7262 -0.505317,-3.03552 -0.660137,-5.40838 -0.596741,-9.14599 0.06316,-3.72414 0.31648,-6.20316 0.959779,-9.39284 1.157896,-5.7412 3.033323,-9.58441 7.044504,-14.43594 1.015452,-1.22818 4.127145,-4.33774 5.381947,-5.37825 3.889671,-3.2254 7.692933,-5.33473 10.868542,-6.02781 0.414131,-0.0904 1.299134,-0.19911 1.966675,-0.24161 1.964184,-0.12506 2.589196,-0.32183 3.273267,-1.03052 0.761649,-0.78905 2.984796,-1.72673 5.619474,-2.37018 1.447785,-0.35358 2.842848,-0.56574 2.95864,-0.44995 0.123325,0.12333 -0.272998,0.8288 -0.922092,1.64137 -0.30301,0.37933 -1.38145,1.5391 -2.396533,2.57728 -2.853963,2.91891 -4.673998,4.94073 -5.80633,6.45006 -0.619556,0.82584 -1.121351,1.26056 -1.828605,1.58418 -0.703817,0.32205 -1.405769,0.44577 -3.031111,0.53428 -1.674588,0.0912 -2.304307,0.21139 -3.102196,0.59219 -1.128282,0.53847 -1.65279,1.37511 -1.65279,2.63636 0,0.98076 0.22073,1.66832 1.150554,3.58395 0.448914,0.92485 0.876352,1.92091 0.949862,2.21346 0.250477,0.99684 0.04408,1.78137 -1.037589,3.94408 -1.320879,2.64097 -2.705624,6.08774 -4.084126,10.16579 -0.921149,2.72505 -1.404145,3.88268 -1.965775,4.71153 -0.552612,0.81553 -0.843606,1.02205 -1.584211,1.12432 -0.834728,0.11528 -1.410793,0.33239 -2.06462,0.77816 -1.032486,0.70393 -1.696933,1.70434 -1.758594,2.64781 -0.03255,0.49801 -0.0101,0.59183 0.286252,1.19659 0.645578,1.31741 1.563448,2.60683 3.523436,4.9497 0.925342,1.10611 1.323777,1.64193 1.293015,1.73885 -0.02446,0.0771 -0.500408,1.79654 -1.057674,3.82109 -1.471459,5.34582 -1.957125,7.64811 -2.093337,9.92343 -0.03808,0.63623 -0.111675,1.23605 -0.163527,1.33294 -0.143633,0.26838 -0.427368,0.21534 -0.964929,-0.1804 z"
     id="path34" />
  <path
     style="fill:#000000;fill-opacity:1;stroke:#000000;stroke-width:0.328107;stroke-dasharray:none;stroke-opacity:1"
     d="m 63.514981,180.67788 c -1.000402,-1.97014 -1.974048,-3.93272 -2.163657,-4.36131 -2.839139,-6.41756 -4.457532,-12.92869 -5.046124,-20.30163 -0.157013,-1.96681 -0.180074,-6.54345 -0.04237,-8.40775 0.45809,-6.20161 1.706585,-11.61301 3.794444,-16.44637 1.080644,-2.50167 1.961923,-4.01059 3.68887,-6.31606 4.25233,-5.67684 11.549781,-12.81762 12.935129,-12.65743 0.170347,0.0197 0.22461,0.0756 0.244912,0.2522 0.0327,0.2843 -0.576907,1.7256 -1.58664,3.75141 -1.613727,3.23757 -2.55624,5.74508 -3.361787,8.94384 -1.253335,4.97691 -1.766818,9.44583 -1.764787,15.35919 0.0017,5.04669 0.643254,13.03189 1.269997,15.80806 0.271898,1.20438 0.31754,1.64549 0.211147,2.0406 -0.135778,0.50423 -0.494965,0.8603 -1.131209,1.12138 -1.773072,0.72756 -2.831699,1.34284 -3.742257,2.17504 -1.278224,1.16823 -1.940579,2.74051 -1.713344,4.0671 0.149007,0.8699 0.506657,1.49093 1.328995,2.3077 0.396063,0.39338 0.805603,0.88134 0.910088,1.08436 0.246563,0.47907 0.306111,1.4627 0.134076,2.21472 -0.701678,3.06728 -0.959418,4.5121 -1.363873,7.6455 -0.298085,2.30932 -0.717362,5.23616 -0.755567,5.27437 -0.01492,0.0149 -0.845647,-1.58479 -1.846048,-3.55492 z"
     id="path35" />
  <path
     style="fill:#000000;fill-opacity:1;stroke:#000000;stroke-width:0.328107;stroke-dasharray:none;stroke-opacity:1"
     d="m 97.397317,174.30991 c -2.102452,-1.0577 -5.573197,-5.57019 -8.20185,-10.66363 C 85.806682,157.07995 83.958,150.9811 83.140245,143.66991 82.697632,139.71268 82.595122,136.89512 82.543807,127.276 l -0.04613,-8.64238 1.179503,0.0586 c 3.939113,0.19549 6.116265,0.17335 7.525402,-0.0765 1.063688,-0.18863 1.419578,-0.3219 2.248508,-0.84199 0.913665,-0.57324 1.30857,-0.70099 1.724745,-0.55791 0.368227,0.12658 0.924367,0.54648 1.889377,1.42648 1.22235,1.11469 1.377368,1.40388 1.044825,1.94924 -0.08657,0.14197 -0.796987,0.792 -1.578705,1.4445 -1.649227,1.37662 -1.97253,1.76652 -2.019007,2.43496 -0.0282,0.40546 0.0067,0.53303 0.317025,1.15313 0.437205,0.87415 1.262692,1.72917 2.37171,2.45657 1.15698,0.75885 1.8918,1.07605 4.10638,1.77261 1.10289,0.3469 2.03889,0.66163 2.08,0.6994 0.0581,0.0534 0.39388,8.53091 0.63609,16.06119 l 0.0275,0.85221 -3.52716,3.09107 c -4.338575,3.80217 -4.959928,4.44892 -5.257445,5.47237 -0.145703,0.50118 -0.09997,0.86414 0.186277,1.47858 0.26907,0.57756 0.87963,1.10571 1.784498,1.54359 0.89601,0.43361 1.623585,0.63729 3.04759,0.85314 1.61082,0.24417 2.23666,0.53565 2.37617,1.10664 0.023,0.0942 -0.0339,0.44808 -0.12653,0.78644 -0.0926,0.33835 -0.61344,2.40543 -1.15743,4.59349 -0.54398,2.18807 -1.1855,4.57406 -1.42558,5.30221 -0.506955,1.53753 -1.01994,2.68294 -1.258845,2.81079 -0.298508,0.15976 -0.715665,0.0971 -1.295198,-0.19441 z"
     id="path36" />
  <path
     style="fill:#000000;fill-opacity:1;stroke:#000000;stroke-width:0.328107;stroke-dasharray:none;stroke-opacity:1"
     d="m 160.56742,134.84111 c -0.69796,-0.0736 -2.31571,-0.29569 -4.75755,-0.65313 -6.96256,-1.01919 -8.06686,-1.35641 -8.02452,-2.45041 0.007,-0.184 0.20023,-0.84351 0.42915,-1.4656 0.5453,-1.48192 0.67496,-2.00542 0.67782,-2.73678 0.003,-0.84903 -0.24718,-1.33455 -1.16102,-2.25015 -1.07556,-1.07765 -1.76781,-1.36134 -2.67709,-1.09715 -0.5239,0.15223 -0.47651,0.12587 -3.36677,1.87294 -3.62739,2.19265 -4.9245,2.77164 -6.20354,2.76909 -0.81703,-10e-4 -1.41917,-0.15356 -3.38137,-0.8532 -3.74331,-1.3347 -8.83902,-3.58406 -10.25753,-4.52791 -1.39021,-0.92501 -1.70341,-1.6777 -1.96204,-4.71521 -0.2723,-3.19804 -0.75114,-4.84499 -1.71163,-5.887 -0.48644,-0.52771 -0.88386,-0.71106 -1.53661,-0.70889 -0.91867,0.003 -1.28401,0.23791 -2.86357,1.8408 -1.20957,1.22744 -1.64336,1.58074 -1.7769,1.44719 -0.0889,-0.0889 -0.18643,-1.2052 -0.18764,-2.14671 -0.002,-1.74517 0.20612,-2.41592 1.71989,-5.53681 1.65553,-3.41315 2.37702,-5.37997 2.52887,-6.89389 0.12297,-1.22594 0.42277,-1.444655 1.85813,-1.355563 1.37687,0.08546 2.64817,0.421238 6.68519,1.765703 5.29034,1.76187 8.94159,3.45458 13.86251,6.42663 5.93312,3.58337 11.56907,7.94305 16.22918,12.55405 4.64959,4.60058 7.27356,8.31113 8.10051,11.45489 0.089,0.33815 0.14069,0.8482 0.14146,1.39445 0.002,1.41662 -0.24026,1.71885 -1.41371,1.76353 -0.34271,0.013 -0.77076,0.008 -0.95122,-0.0109 z"
     id="path37" />
  <path
     style="fill:#000000;fill-opacity:1;stroke:#000000;stroke-width:0.328107;stroke-dasharray:none;stroke-opacity:1"
     d="m 100.80209,107.6311 c -0.53492,-0.22005 -0.79629,-0.39355 -1.616765,-1.07322 -1.174605,-0.97304 -1.803975,-1.94358 -2.041193,-3.14767 -0.120712,-0.61269 -0.121064,-0.72882 -0.0037,-1.3226 0.07058,-0.35802 0.249286,-0.89681 0.397223,-1.19732 0.320078,-0.65017 1.165313,-1.58513 1.848037,-2.044235 1.860068,-1.250798 3.263868,-2.48343 3.881138,-3.407895 0.85669,-1.283018 1.41236,-1.559198 2.28612,-1.13622 0.46029,0.222825 1.37631,1.074465 1.5691,1.458825 0.22197,0.442537 0.47403,1.274347 0.63549,2.097187 0.2001,1.019798 0.20216,3.670638 0.004,4.544768 -0.38859,1.71001 -1.39574,2.88503 -3.85912,4.50236 -1.35805,0.89163 -2.21111,1.09145 -3.09947,0.72602 z"
     id="path38" />
  <path
     style="fill:#000000;fill-opacity:1;stroke:#000000;stroke-width:0.328107;stroke-dasharray:none;stroke-opacity:1"
     d="m 86.679765,110.81278 c -2.65044,-0.64215 -4.40652,-3.37013 -4.621575,-7.17939 -0.06233,-1.10348 0.07297,-2.68686 0.305392,-3.57414 0.5424,-2.070835 1.837305,-3.09106 3.572483,-2.814685 2.144415,0.341557 2.847135,1.21266 3.058485,3.791375 0.147607,1.80091 0.594982,3.54488 1.473577,5.74437 0.683483,1.71105 0.855863,2.33117 0.808553,2.90874 -0.07661,0.93529 -0.873,1.25502 -3.09789,1.24371 -0.579165,-0.003 -1.231455,-0.0551 -1.499025,-0.11998 z"
     id="path39" />
  <path
     style="fill:#000000;fill-opacity:1;stroke:#000000;stroke-width:0.328107;stroke-dasharray:none;stroke-opacity:1"
     d="m 93.444135,91.83249 c -1.521945,-0.412808 -2.729783,-1.489838 -3.54549,-3.161543 -0.660353,-1.353307 -0.776888,-1.927335 -0.774383,-3.814245 0.0015,-1.241872 0.03397,-1.72539 0.144495,-2.162452 0.459135,-1.815488 1.428803,-3.272108 2.680793,-4.027028 0.680625,-0.4104 1.186155,-0.557617 2.05746,-0.59916 0.890707,-0.04245 1.52289,0.08361 2.348017,0.468263 2.34027,1.090972 3.421515,2.903865 3.53151,5.921167 0.0987,2.70753 -0.565912,4.708875 -2.018947,6.07959 -1.31292,1.238543 -2.909393,1.70607 -4.423455,1.295408 z"
     id="path40" />
  <path
     style="fill:#000000;fill-opacity:1;stroke:#000000;stroke-width:0.328107;stroke-dasharray:none;stroke-opacity:1"
     d="m 174.10184,112.30711 c -0.22557,-0.10506 -0.86051,-0.47287 -1.41098,-0.81736 -1.39217,-0.87125 -3.6081,-2.12543 -5.64332,-3.19405 -2.99484,-1.57248 -3.82374,-2.10852 -4.6641,-3.01621 -0.8167,-0.88213 -1.08001,-1.49493 -1.64923,-3.83827 -0.65754,-2.7069 -1.70745,-4.464555 -3.026,-5.065808 -0.42198,-0.19242 -0.55695,-0.214642 -1.10943,-0.182662 -1.27348,0.07372 -2.07438,0.719077 -3.95825,3.189517 -0.74425,0.975983 -1.27873,1.607003 -1.33321,1.574033 -0.05,-0.0303 -1.34766,-0.88992 -2.88363,-1.910333 -4.81007,-3.195517 -8.34933,-5.195385 -11.31593,-6.394095 -2.25579,-0.91149 -3.49345,-1.5879 -4.31983,-2.36088 -0.49319,-0.461325 -0.68505,-0.817455 -0.75011,-1.392352 -0.12842,-1.134743 -0.98752,-2.519843 -2.2781,-3.672885 -0.92111,-0.822945 -1.20263,-0.984248 -1.71779,-0.984248 -0.60481,0 -0.99556,0.256073 -2.39499,1.569518 -3.02567,2.839792 -4.22971,3.23556 -9.49702,3.121687 -3.99982,-0.08647 -5.97438,-0.440017 -6.7467,-1.208002 -0.51281,-0.509933 -0.37938,-1.004625 0.50809,-1.883685 0.97846,-0.969195 2.75328,-2.071598 5.74645,-3.569325 5.43339,-2.718758 10.38758,-4.519898 14.19251,-5.159813 3.30957,-0.556605 6.59353,-0.542692 10.29249,0.04358 2.67789,0.424448 6.68787,1.377263 8.57179,2.036753 6.86753,2.404042 13.70594,7.487152 18.52975,13.77348 2.80809,3.659475 5.60239,9.16455 6.89426,13.58246 0.82199,2.81101 1.07942,5.55229 0.55285,5.88711 -0.13403,0.0852 -0.12907,0.0863 -0.58957,-0.12817 z"
     id="path41" />
  <path
     style="fill:#000000;fill-opacity:1;stroke:#000000;stroke-width:0.328107;stroke-dasharray:none;stroke-opacity:1"
     d="m 107.29086,76.940917 c -0.50067,-0.60327 1.54585,-2.82351 4.3886,-4.761151 1.24465,-0.84836 1.81684,-1.332722 2.33741,-1.978628 0.60225,-0.747256 0.86784,-1.295849 1.02297,-2.113015 0.14938,-0.786929 0.44026,-1.298387 1.22045,-2.145935 1.6886,-1.834398 4.95319,-3.964071 7.84623,-5.118534 2.98402,-1.190768 6.21633,-2.138655 9.06396,-2.658039 3.71845,-0.678213 6.44637,-0.901532 11.07361,-0.906534 6.20499,-0.0067 10.14977,0.45303 16.28232,1.897599 4.23678,0.998004 6.76112,1.8566 7.05099,2.398227 0.13195,0.24656 -0.16994,0.538872 -0.79681,0.771513 -0.30433,0.112939 -1.03317,0.380259 -1.61966,0.594044 -1.11248,0.405514 -2.97217,1.188709 -5.51916,2.324348 -3.37129,1.50318 -3.95426,1.541618 -5.34939,0.352706 -0.71853,-0.612312 -1.55692,-1.147214 -2.11976,-1.352413 -0.69089,-0.251886 -1.56112,-0.238091 -2.14938,0.03407 -1.03933,0.480859 -1.51323,1.115862 -2.68786,3.601666 -0.35614,0.753688 -0.76744,1.26114 -1.18665,1.464077 -0.53247,0.257763 -1.3666,0.228186 -3.26502,-0.115773 -2.12096,-0.38428 -3.27035,-0.519667 -5.18736,-0.611013 -6.37164,-0.303615 -13.61406,1.135955 -20.46558,4.067931 -1.58877,0.679885 -4.09803,1.916319 -5.47164,2.696142 -1.257,0.713633 -2.26994,1.21278 -2.976,1.466498 -0.67643,0.243075 -1.33338,0.283665 -1.49227,0.09221 z"
     id="path42" />
  <path
     style="fill:#000000;fill-opacity:1;stroke:#000000;stroke-width:1.31243;stroke-dasharray:none;stroke-opacity:1"
     d="M 79.911502,76.038825 C 74.546351,70.564195 65.604454,47.524014 63.198334,32.974766 62.165464,26.729239 61.622413,12.355895 62.299728,9.1907025 l 0.209841,-0.980619 1.495359,1.9649395 c 0.822447,1.080717 2.908283,4.053449 4.635193,6.60607 l 3.139834,4.641131 -1.955782,1.921012 c -2.310354,2.269282 -3.044305,3.482829 -2.602298,4.302752 0.776704,1.440786 3.402595,3.033269 6.878252,4.171347 2.765265,0.905467 3.794505,2.061416 6.12441,6.878413 2.699858,5.581853 4.458968,10.378231 4.675245,12.74747 0.157635,1.726794 0.08395,2.024394 -0.81243,3.28107 -1.536525,2.154135 -2.060572,3.372994 -2.060572,4.792566 0,1.816917 1.00899,2.888567 3.279225,3.482864 2.588415,0.67759 3.177712,1.888466 1.609672,3.307523 -0.71451,0.646624 -0.804,2.049505 -0.231705,3.632176 0.499043,1.380061 0.02865,2.439305 -2.344605,5.279538 -2.050192,2.453617 -2.707515,2.575327 -4.427865,0.81987 z"
     id="path45" />
  <path
     style="fill:#000000;fill-opacity:1;stroke:#000000;stroke-width:1.31243;stroke-dasharray:none;stroke-opacity:1"
     d="m 98.550082,70.243457 c -1.390207,-0.647306 -1.758615,-1.003404 -2.096152,-2.026147 -0.526193,-1.594387 -0.232298,-8.062646 0.490657,-10.798563 1.33467,-5.050896 4.382673,-9.640168 10.258433,-15.445793 6.02771,-5.955754 8.81274,-7.584378 16.16526,-9.453086 9.49287,-2.412697 16.23034,-2.403098 25.01826,0.03564 2.46443,0.683905 3.10492,0.97476 2.78891,1.26647 -0.53762,0.496274 -11.27872,7.328823 -11.89005,7.56341 -0.2591,0.09943 -1.87759,-0.36419 -3.59665,-1.030266 -4.17723,-1.618544 -5.18858,-1.629075 -6.61836,-0.06892 -1.264,1.379267 -1.3602,2.168123 -0.57009,4.674655 0.95114,3.017359 1.07271,2.892815 -7.17792,7.353239 -1.39593,0.754664 -3.8646,2.324637 -5.48592,3.488829 -1.62132,1.164193 -3.32075,2.258486 -3.7765,2.431763 -0.45822,0.174214 -2.18603,0.228346 -3.86513,0.121095 -2.75144,-0.175746 -3.11717,-0.129667 -3.89577,0.490828 -1.26484,1.007986 -1.36901,2.238484 -0.44955,5.310371 0.89896,3.003424 0.77556,3.744845 -0.96738,5.811861 -1.09539,1.299084 -2.0076,1.356909 -4.332048,0.274612 z"
     id="path46" />
  <path
     style="fill:#000000;fill-opacity:1;stroke:#000000;stroke-width:1.31243;stroke-dasharray:none;stroke-opacity:1"
     d="M 67.918175,76.614615 C 62.98472,74.98879 59.331169,74.517388 51.512819,74.4979 c -4.566849,-0.01139 -8.062096,0.144973 -9.912357,0.443418 -3.449126,0.556337 -3.456249,0.552369 -5.057405,-2.821749 -1.348889,-2.842514 -3.272205,-5.021662 -4.432117,-5.021662 -0.527466,0 -1.353682,0.560736 -2.417245,1.640536 -0.888727,0.902295 -1.810886,1.640535 -2.049243,1.640535 -0.238356,0 -1.177827,-0.377242 -2.087714,-0.838316 -0.909885,-0.461074 -3.291612,-1.267873 -5.292726,-1.792888 -2.001113,-0.525014 -3.785044,-1.101227 -3.964291,-1.280474 -1.937482,-1.937481 16.047538,-6.263868 26.013628,-6.257708 5.826393,0.0036 14.16632,1.707226 18.585128,3.796446 3.123367,1.476733 5.607276,4.155071 8.052816,8.68315 1.911532,3.539334 2.489388,4.931544 2.023984,4.876329 -0.147507,-0.01748 -1.523201,-0.445402 -3.057102,-0.950902 z"
     id="path47" />
</svg>
